<svg width="13" height="13" viewBox="0 0 13 13" fill="none" xmlns="http://www.w3.org/2000/svg">
<g id="Clip path group">
<mask id="mask0_62_85" style="mask-type:luminance" maskUnits="userSpaceOnUse" x="0" y="0" width="13" height="13">
<g id="clip0_901_896">
<path id="Vector" d="M0.4 12.6V0.4H12.6V12.6H0.4Z" fill="white" stroke="white" stroke-width="0.8"/>
</g>
</mask>
<g mask="url(#mask0_62_85)">
<g id="Group">
<path id="Vector_2" d="M6.5001 10.1562V7.71875C6.5001 7.71875 4.0626 6.5 4.46885 5.6875C5.28135 4.0625 6.5001 3.25 7.3126 2.84375C8.1251 4.875 10.1563 5.6875 10.1563 5.6875M3.25009 6.5H0.812593M2.84384 4.875H0.406343M0.546784 9.3394C0.455784 9.59493 0.406219 9.86996 0.406219 10.1564C0.406219 11.5023 1.49781 12.5939 2.84372 12.5939C4.19004 12.5939 5.28123 11.5023 5.28123 10.1564C5.28123 9.31462 4.85507 8.56306 4.2071 8.12512H1.21872M5.28135 6.97052C5.28135 6.97052 5.96669 5.28133 7.99794 4.06258M12.5938 10.1562C12.5938 8.81034 11.5023 7.71875 10.1563 7.71875C8.81044 7.71875 7.71885 8.81034 7.71885 10.1562C7.71885 11.5022 8.81044 12.5937 10.1563 12.5937C11.5023 12.5937 12.5938 11.5022 12.5938 10.1562ZM9.34385 1.21875C9.34385 0.77025 8.97985 0.40625 8.53135 0.40625C8.08285 0.40625 7.71885 0.77025 7.71885 1.21875C7.71885 1.66725 8.08285 2.03125 8.53135 2.03125C8.97985 2.03125 9.34385 1.66725 9.34385 1.21875Z" stroke="#FB6603" stroke-width="0.8" stroke-linecap="round" stroke-linejoin="round"/>
</g>
</g>
</g>
</svg>
