<svg width="25" height="25" viewBox="0 0 25 25" fill="none" xmlns="http://www.w3.org/2000/svg">
<g id="house" clip-path="url(#clip0_62_80)">
<g id="Group">
<path id="Vector" d="M12.0569 0.0913849C11.7421 0.175859 11.5322 0.290014 10.6343 0.876772C7.34373 3.02061 4.19541 6.12335 1.66276 9.71467C1.11472 10.4909 0.471063 11.5092 0.216865 12.0001C0.0839361 12.2581 0.081604 12.2672 0.081604 12.4498C0.081604 12.6096 0.0932645 12.6553 0.146903 12.7558C0.221529 12.8996 0.34513 13.0206 0.475727 13.08C0.531697 13.1051 1.01444 13.2078 1.63244 13.322C2.21547 13.4316 2.73785 13.5389 2.78916 13.5617C2.93142 13.6211 3.06901 13.7535 3.13664 13.895C3.19028 14.0069 3.19961 14.0617 3.2206 14.4361C3.44448 18.6005 3.67302 21.5663 3.8969 23.2877C3.95987 23.7877 4.07647 24.4635 4.12078 24.5868C4.16276 24.7101 4.30035 24.9019 4.35632 24.9179C4.37731 24.9247 8.05735 24.927 12.535 24.927L20.674 24.9247L20.7393 24.8562C20.7766 24.8174 20.8279 24.7466 20.8535 24.6964C21.1077 24.2055 21.5042 19.943 21.77 14.8402C21.791 14.4567 21.8167 14.0982 21.8307 14.0412C21.882 13.8197 22.0639 13.6165 22.2691 13.5526C22.3274 13.5343 22.8475 13.4293 23.4235 13.322C24.0392 13.2055 24.5056 13.1074 24.5546 13.0823C24.6548 13.032 24.8181 12.8699 24.8694 12.7672C24.9417 12.6302 24.9603 12.4567 24.9207 12.306C24.7761 11.7512 23.2369 9.44983 21.924 7.82198C21.7934 7.65988 21.6698 7.49778 21.6511 7.46353C21.6301 7.42243 21.5951 7.17814 21.5601 6.81056C21.4529 5.71696 21.2943 4.60737 21.1031 3.58454C20.9911 2.99093 20.9655 2.90874 20.8465 2.77632C20.6716 2.58225 20.6366 2.57312 19.424 2.43157C18.806 2.35851 18.2836 2.306 18.2089 2.31056C18.1017 2.31741 18.0574 2.33568 17.9874 2.39047C17.8195 2.52289 17.8078 2.5617 17.7938 3.04344L17.7822 3.47266L17.3507 3.1028C16.2756 2.18043 15.042 1.27632 13.8293 0.520607C13.1786 0.114216 13.0504 0.0662689 12.5583 0.0548534C12.2854 0.0457211 12.2038 0.0525703 12.0569 0.0913849Z" fill="white"/>
</g>
</g>
<defs>
<clipPath id="clip0_62_80">
<rect width="25" height="25" fill="white"/>
</clipPath>
</defs>
</svg>
