<svg width="25" height="25" viewBox="0 0 25 25" fill="none" xmlns="http://www.w3.org/2000/svg">
<g id="restaurant">
<g id="Group">
<path id="Vector" d="M20.1747 2.15176C19.8387 2.29495 19.6281 2.48071 19.2294 2.98381C16.595 6.31198 15.0403 10.12 14.6685 14.1448C14.6102 14.7756 14.6013 15.2439 14.6192 16.2733C14.655 18.3321 14.7491 18.5759 15.5735 18.8042C15.7437 18.8507 16.3889 18.9474 17.0027 19.021C17.621 19.0906 18.1586 19.1641 18.2034 19.1758C18.3602 19.2299 18.3602 19.2648 18.1452 21.5558C17.957 23.5953 17.836 24.6866 17.7823 24.8337L17.733 24.9614H13.284C9.08154 24.9614 8.83064 24.9575 8.80824 24.8917C8.73656 24.675 8.42742 20.8476 8.35125 19.2222L8.31989 18.5759L8.47222 18.4598C8.55734 18.3979 8.78584 18.2354 8.98297 18.0999C9.57437 17.6974 10.1299 17.0202 10.3629 16.4087C10.569 15.8669 10.69 14.6324 10.6317 13.6881C10.6093 13.394 10.6093 12.7748 10.6272 12.3143C10.6407 11.8538 10.6765 10.8205 10.7034 10.0233C10.7303 9.22607 10.7975 7.47684 10.8468 6.13783C10.9409 3.73845 10.9409 3.70362 10.8557 3.60687C10.6989 3.42498 10.5421 3.35145 10.2733 3.33984C10.0717 3.32823 9.98208 3.33984 9.87007 3.40176C9.61021 3.54108 9.59229 3.603 9.52061 4.43505C9.31899 6.83443 9.17562 9.69046 9.19354 10.9327C9.20251 11.6332 9.19354 11.7764 9.12186 11.9583C8.96953 12.3491 8.75 12.531 8.36917 12.5813C7.87186 12.651 7.45967 12.4575 7.25358 12.0666C7.14605 11.8654 7.14605 11.846 7.15949 10.836C7.17742 9.00161 7.30286 6.19588 7.44623 4.38861C7.49552 3.75393 7.49104 3.7191 7.41039 3.59526C7.13709 3.19279 6.48297 3.18505 6.22311 3.57978C6.16487 3.67266 6.12903 3.95517 6.05286 4.91492C5.86021 7.37235 5.81541 8.26245 5.78853 10.062L5.75716 11.9002L5.63172 12.1247C5.46147 12.4188 5.24641 12.5465 4.87903 12.5697C4.48476 12.5968 4.31899 12.5542 4.09498 12.3762C3.93369 12.2485 3.87992 12.1672 3.79928 11.9467C3.70967 11.6912 3.70519 11.6216 3.73656 10.8979C3.8172 8.77715 3.94713 5.80114 3.99193 4.95362C4.05018 3.82746 4.04122 3.71136 3.87096 3.55656C3.55734 3.27406 2.95251 3.33984 2.76881 3.6804C2.68817 3.82746 2.62544 4.86074 2.46415 8.63009C2.26254 13.3205 2.25806 15.2052 2.44175 15.8863C2.75089 17.0473 3.33781 17.8522 4.24731 18.3708C4.4534 18.4869 4.65501 18.6301 4.69534 18.692C4.76254 18.781 4.78942 19.0635 4.87455 20.4219C4.98208 22.1363 5.12544 23.8855 5.19713 24.4002C5.22401 24.5705 5.24193 24.764 5.24193 24.8337V24.9614L3.37365 24.973C2.34319 24.9768 6.42025 24.9807 12.4328 24.9807C18.4453 24.9807 22.9077 24.9768 22.3477 24.973C21.4426 24.9614 21.3262 24.9536 21.3262 24.8994C21.3262 24.8646 21.3665 24.4505 21.4158 23.9784C21.586 22.3182 21.8011 19.7601 21.931 17.7632C21.9937 16.7648 22.0251 16.1998 22.1416 13.8739C22.1729 13.2199 22.1953 11.5558 22.1953 9.88783C22.1953 6.86926 22.1505 5.72762 21.9534 4.02483C21.8459 3.09991 21.8369 3.06121 21.7204 2.75161C21.4964 2.15176 20.7975 1.88087 20.1747 2.15176Z" fill="white"/>
</g>
</g>
</svg>
